<svg xmlns="http://www.w3.org/2000/svg" width="221" height="630">
  <g fill="none" fill-rule="evenodd">
    <path stroke="#9013FE" stroke-linecap="square" stroke-width="3" d="M132.5 53.5l-51 44M81.5 97.5l10.137-4.7834-3.9194-4.543L81.5 97.5zM143.3984 559.5L81.5 533.5M81.5 533.5l8.7955 6.9484 2.3236-5.5318L81.5 533.5zM183.5 309.5h-71M112.5 309.5l10.8 3v-6l-10.8 3z"/>
    <path fill="#9013FE" stroke="#9013FE" stroke-width="3" d="M199.3497 468.9532l-.1894-28.1453-27.4205 18.8537zM47.4284 244.6107l15.8325-38.1014-48.0507 9.5927z"/>
    <path stroke="#9013FE" stroke-width="3" d="M10.5079 409.5764l83.2952 21.9977-40.6957-82.0494z"/>
    <text fill="#9013FE" font-family="Quantico-Regular, Quantico" font-size="48" transform="translate(-2 -16)">
      <tspan x=".356" y="51">#</tspan>
    </text>
    <text fill="#9013FE" font-family="Quantico-Regular, Quantico" font-size="64" transform="translate(-2 -16)">
      <tspan x="7.308" y="644">#</tspan>
    </text>
    <text fill="#9013FE" font-family="Quantico-Regular, Quantico" font-size="48" transform="translate(-2 -16)">
      <tspan x="189.356" y="197">#</tspan>
    </text>
  </g>
</svg>
