<?xml version="1.0" encoding="UTF-8"?>
<svg width="262px" height="579px" viewBox="0 0 262 579" version="1.1" xmlns="http://www.w3.org/2000/svg" xmlns:xlink="http://www.w3.org/1999/xlink">
    <g id="HOME" stroke="none" stroke-width="1" fill="none" fill-rule="evenodd">
        <g id="Desktop-HD---Above-Fold" transform="translate(-76.000000, -155.000000)">
            <g id="Group" transform="translate(78.000000, 134.000000)">
                <path d="M58.2894737,174.5 L105.5,201.5" id="Line" stroke="#9013FE" stroke-width="3" stroke-linecap="square"></path>
                <path id="Line-decoration-1" d="M105.5,201.5 L97.6142589,193.53413 L94.6355495,198.742516 L105.5,201.5 Z" stroke="#9013FE" stroke-width="3" stroke-linecap="square"></path>
                <path d="M18.2890625,577.5 L71.5,551.5" id="Line" stroke="#9013FE" stroke-width="3" stroke-linecap="square"></path>
                <path id="Line-decoration-1" d="M71.5,551.5 L60.4793764,553.545936 L63.1134731,558.936812 L71.5,551.5 Z" stroke="#9013FE" stroke-width="3" stroke-linecap="square"></path>
                <path d="M0.288461538,336.5 L70.5,336.5" id="Line" stroke="#9013FE" stroke-width="3" stroke-linecap="square"></path>
                <path id="Line-decoration-1" d="M70.5,336.5 L59.7,333.5 L59.7,339.5 L70.5,336.5 Z" stroke="#9013FE" stroke-width="3" stroke-linecap="square"></path>
                <polygon id="Path-3" stroke="#9013FE" stroke-width="3" points="186 249.610706 193.817547 335.40625 257 269.102279"></polygon>
                <polygon id="Path-3" stroke="#9013FE" stroke-width="3" fill="#9013FE" transform="translate(140.973963, 458.389590) rotate(81.000000) translate(-140.973963, -458.389590) " points="109.973963 427.88959 116.800553 488.88959 171.973963 441.747955"></polygon>
                <polygon id="Path-3" stroke="#9013FE" stroke-width="3" fill="#9013FE" transform="translate(186.037186, 86.227770) rotate(156.000000) translate(-186.037186, -86.227770) " points="171.822246 72.2421039 174.952555 100.213436 200.252125 78.5968076"></polygon>
                <text id="#" font-family="Quantico-Regular, Quantico" font-size="64" font-weight="normal" fill="#9013FE">
                    <tspan x="45.308" y="68">#</tspan>
                </text>
                <text id="#" font-family="Quantico-Regular, Quantico" font-size="48" font-weight="normal" fill="#9013FE">
                    <tspan x="217.356" y="599">#</tspan>
                </text>
            </g>
        </g>
    </g>
</svg>