<?xml version="1.0" encoding="UTF-8"?>
<svg width="103px" height="672px" viewBox="0 0 103 672" version="1.1" xmlns="http://www.w3.org/2000/svg" xmlns:xlink="http://www.w3.org/1999/xlink">
    <g id="illustrations-left" stroke="none" stroke-width="1" fill="none" fill-rule="evenodd">
        <g id="Desktop-HD---Above-Fold" transform="translate(-102.000000, -151.000000)">
            <g id="Group-2" transform="translate(104.000000, 130.000000)">
                <polygon id="Path-4" stroke="#9013FE" stroke-width="3" points="0 189.577661 7.4872283 252 68 203.759162"></polygon>
                <polygon id="Path-4" stroke="#9013FE" stroke-width="3" fill="#9013FE" transform="translate(34.253349, 456.668976) rotate(81.000000) translate(-34.253349, -456.668976) " points="8.25334878 431.168976 13.9788763 482.168976 60.2533488 442.755478"></polygon>
                <path d="M10.2894737,90.5 L57.5,117.5" id="Line" stroke="#9013FE" stroke-width="3" stroke-linecap="square"></path>
                <path id="Line-decoration-1" d="M57.5,117.5 L49.6142589,109.53413 L46.6355495,114.742516 L57.5,117.5 Z" stroke="#9013FE" stroke-width="3" stroke-linecap="square"></path>
                <path d="M27.2890625,589.5 L80.5,563.5" id="Line" stroke="#9013FE" stroke-width="3" stroke-linecap="square"></path>
                <path id="Line-decoration-1" d="M80.5,563.5 L69.4793764,565.545936 L72.1134731,570.936812 L80.5,563.5 Z" stroke="#9013FE" stroke-width="3" stroke-linecap="square"></path>
                <path d="M10.2884615,335.5 L54.7115385,335.5" id="Line" stroke="#9013FE" stroke-width="3" stroke-linecap="square"></path>
                <path id="Line-decoration-1" d="M54.7115385,335.5 L43.9115385,332.5 L43.9115385,338.5 L54.7115385,335.5 Z" stroke="#9013FE" stroke-width="3" stroke-linecap="square"></path>
                <text id="#" font-family="Quantico-Regular, Quantico" font-size="64" font-weight="normal" fill="#9013FE">
                    <tspan x="56.808" y="68">#</tspan>
                </text>
                <text id="#" font-family="Quantico-Regular, Quantico" font-size="48" font-weight="normal" fill="#9013FE">
                    <tspan x="62.856" y="692">#</tspan>
                </text>
            </g>
        </g>
    </g>
</svg>